<?xml version="1.0"?><svg fill="#FFFFFF" id="material" xmlns="http://www.w3.org/2000/svg" viewBox="164.44 0.27 18.12 9.51"><defs></defs><path class="cls-1" fill="#FFFFFF" d="M167.68.71h-2.94v8.6h2.05v-2.23h.84c1.9,0,2.26-1.88,2.26-3.34,0-1.82-.78-3.03-2.21-3.03ZM167.27,5.42h-.48v-3.02h.48c.37,0,.57.49.57,1.28,0,1.07,0,1.73-.57,1.73Z"></path><path class="cls-1" fill="#FFFFFF" d="M172.43,2.45v-.21h.39v.79h2.09v-.56c0-1.19-.56-1.9-2.26-1.9-1.6,0-2.37.55-2.37,2.04,0,2.75,2.5,3.07,2.5,4.98v.22h-.39v-.8h-2.11v.56c0,1.33.78,1.91,2.33,1.91,1.66,0,2.36-.64,2.36-2.04,0-3-2.53-3.07-2.53-4.98Z"></path><path class="cls-1" fill="#FFFFFF" d="M176.25.71l-.88,8.6h2.05l.06-1.15h.83l.06,1.15h2.1l-.92-8.6h-3.29ZM177.55,6.59l.21-4.22h.26l.21,4.22h-.68Z"></path><path class="cls-1" fill="#FFFFFF" d="M182.21,8.31c-.06-.19-.22-.34-.4-.4-.64-.21-1.18.33-.96.97.06.19.22.34.41.4.64.2,1.16-.33.96-.96Z"></path></svg>